<svg preserveAspectRatio="xMidYMid meet" width="16" height="16" viewBox="0 0 16 16" fill="none" xmlns="http://www.w3.org/2000/svg">
<g id="Lui-icon-hint-solid">
<path id="Union" fill-rule="evenodd" clip-rule="evenodd" d="M7.99967 0.666667C12.0497 0.666667 15.3335 3.94973 15.3337 7.99967C15.3337 12.0498 12.0498 15.3337 7.99967 15.3337C3.94966 15.3336 0.666667 12.0497 0.666667 7.99967C0.666837 3.94979 3.94977 0.666755 7.99967 0.666667ZM7.99479 10.6667C7.80749 10.6667 7.65311 10.7227 7.5319 10.8571C7.39967 10.9803 7.33366 11.1373 7.33366 11.3278C7.33367 11.5182 7.39976 11.6748 7.5319 11.8092C7.65311 11.9325 7.80746 11.9997 7.99479 11.9997C8.18204 11.9996 8.34697 11.9324 8.47917 11.8092C8.60037 11.686 8.66665 11.5294 8.66667 11.3278C8.66667 11.1373 8.60038 10.9803 8.47917 10.8571C8.34701 10.7228 8.19298 10.6667 7.99479 10.6667ZM8.00065 3.99967C7.63246 3.99967 7.33366 4.29848 7.33366 4.66667V9.33366C7.33383 9.7017 7.63257 9.99967 8.00065 9.99967C8.36851 9.99941 8.66649 9.70154 8.66667 9.33366V4.66667C8.66667 4.29864 8.36862 3.99994 8.00065 3.99967Z" fill="#FF7700"/>
</g>
</svg>
